<svg xmlns="http://www.w3.org/2000/svg" width="1391px" height="430px" viewBox="0 0 1391 430" xmlns:xlink="http://www.w3.org/1999/xlink" style="overflow: hidden; display: block; width: 1391px; height: 430px;"><rect width="1391px" height="430px" fill="white"/><defs><path fill="rgb(51,102,153)" stroke="rgb(51,102,153)" d="M 5,-5 L 0,0 L 5,5 Z" fill-opacity="1" stroke-opacity="1" stroke-width="1" stroke-linecap="butt" stroke-linejoin="miter" stroke-miterlimit="10" id="ygc93_0"/></defs><g style="pointer-events:visiblePainted" transform="translate(75 395)" image-rendering="auto" shape-rendering="auto"><g><g transform="translate(-50 -370)"><rect fill="rgb(224,224,224)" stroke="rgb(0,0,0)" stroke-opacity="1" stroke-width="1" stroke-linecap="butt" stroke-linejoin="miter" stroke-miterlimit="10" fill-opacity="1" y="0" height="380" width="1341" x="0"/><g transform="translate(0 0)"><g><g transform="translate(20 20)"><g transform="translate(0 0)"><rect x="0" y="0" width="1321" height="90" stroke="none" fill="rgb(196,215,237)" fill-opacity="1"/><rect x="0" y="0" width="20" height="90" stroke="none" fill="rgb(224,224,224)" fill-opacity="1"/><rect x="0" y="0" width="1321" height="0" stroke="none" fill="rgb(224,224,224)" fill-opacity="1"/><rect x="1321" y="0" width="0" height="90" stroke="none" fill="rgb(224,224,224)" fill-opacity="1"/><rect x="0" y="90" width="1321" height="0" stroke="none" fill="rgb(224,224,224)" fill-opacity="1"/><rect x="0" y="0" width="1321" height="90" stroke="rgb(0,0,0)" stroke-opacity="1" stroke-width="1" stroke-linecap="butt" stroke-linejoin="miter" stroke-miterlimit="10" fill="none"/></g></g><g transform="matrix(0 -1 1 0 20 110)"><text font-family="'Arial'" font-size="12px" font-style="normal" font-weight="normal" text-decoration="none" text-anchor="middle" fill="rgb(0,0,0)" fill-opacity="1" dy="0.9166666666666666em" transform="translate(45 3.234375)">Page in Browser</text></g></g><g><g transform="translate(20 110)"><g transform="translate(0 0)"><rect x="0" y="0" width="1321" height="90" stroke="none" fill="rgb(171,200,226)" fill-opacity="1"/><rect x="0" y="0" width="20" height="90" stroke="none" fill="rgb(224,224,224)" fill-opacity="1"/><rect x="0" y="0" width="1321" height="0" stroke="none" fill="rgb(224,224,224)" fill-opacity="1"/><rect x="1321" y="0" width="0" height="90" stroke="none" fill="rgb(224,224,224)" fill-opacity="1"/><rect x="0" y="90" width="1321" height="0" stroke="none" fill="rgb(224,224,224)" fill-opacity="1"/><rect x="0" y="0" width="1321" height="90" stroke="rgb(0,0,0)" stroke-opacity="1" stroke-width="1" stroke-linecap="butt" stroke-linejoin="miter" stroke-miterlimit="10" fill="none"/></g></g><g transform="matrix(0 -1 1 0 20 200)"><text font-family="'Arial'" font-size="12px" font-style="normal" font-weight="normal" text-decoration="none" text-anchor="middle" fill="rgb(0,0,0)" fill-opacity="1" dy="0.9166666666666666em" transform="translate(45 3.234375)">php on server</text></g></g><g><g transform="translate(20 200)"><g transform="translate(0 0)"><rect x="0" y="0" width="1321" height="90" stroke="none" fill="rgb(196,215,237)" fill-opacity="1"/><rect x="0" y="0" width="20" height="90" stroke="none" fill="rgb(224,224,224)" fill-opacity="1"/><rect x="0" y="0" width="1321" height="0" stroke="none" fill="rgb(224,224,224)" fill-opacity="1"/><rect x="1321" y="0" width="0" height="90" stroke="none" fill="rgb(224,224,224)" fill-opacity="1"/><rect x="0" y="90" width="1321" height="0" stroke="none" fill="rgb(224,224,224)" fill-opacity="1"/><rect x="0" y="0" width="1321" height="90" stroke="rgb(0,0,0)" stroke-opacity="1" stroke-width="1" stroke-linecap="butt" stroke-linejoin="miter" stroke-miterlimit="10" fill="none"/></g></g><g transform="matrix(0 -1 1 0 20 290)"><text font-family="'Arial'" font-size="12px" font-style="normal" font-weight="normal" text-decoration="none" text-anchor="middle" fill="rgb(0,0,0)" fill-opacity="1" dy="0.9166666666666666em" transform="translate(45 3.234375)">appscript</text></g></g><g><g transform="translate(20 290)"><g transform="translate(0 0)"><rect x="0" y="0" width="1321" height="90" stroke="none" fill="rgb(171,200,226)" fill-opacity="1"/><rect x="0" y="0" width="20" height="90" stroke="none" fill="rgb(224,224,224)" fill-opacity="1"/><rect x="0" y="0" width="1321" height="0" stroke="none" fill="rgb(224,224,224)" fill-opacity="1"/><rect x="1321" y="0" width="0" height="90" stroke="none" fill="rgb(224,224,224)" fill-opacity="1"/><rect x="0" y="90" width="1321" height="0" stroke="none" fill="rgb(224,224,224)" fill-opacity="1"/><rect x="0" y="0" width="1321" height="90" stroke="rgb(0,0,0)" stroke-opacity="1" stroke-width="1" stroke-linecap="butt" stroke-linejoin="miter" stroke-miterlimit="10" fill="none"/></g></g><g transform="matrix(0 -1 1 0 20 380)"><text font-family="'Arial'" font-size="12px" font-style="normal" font-weight="normal" text-decoration="none" text-anchor="middle" fill="rgb(0,0,0)" fill-opacity="1" dy="0.9166666666666666em" transform="translate(45 3.234375)">Spreadsheet</text></g></g><g/><g/></g></g></g><g transform="matrix(0 -1 1 0 -46.765625 -167.99113585957573)"><text font-family="'Arial'" font-size="12px" font-style="normal" font-weight="normal" text-decoration="none" text-anchor="start" fill="rgb(0,0,0)" fill-opacity="1" dy="0.9166666666666666em" transform="translate(0 0)">Pool</text></g><g><path fill="none" stroke="rgb(51,102,153)" d="M 30,-305 L 65.25,-305" stroke-opacity="1" stroke-width="1" stroke-linecap="butt" stroke-linejoin="miter" stroke-miterlimit="10"/><use xlink:href="#ygc93_0" transform="matrix(-0.75 0 0 -0.75 68.46966991411009 -305)" style="pointer-events: none;"/></g><g><path fill="none" stroke="rgb(51,102,153)" d="M 135,-305 L 155,-305 L 155,-215 L 170.25,-215" stroke-opacity="1" stroke-width="1" stroke-linecap="butt" stroke-linejoin="miter" stroke-miterlimit="10"/><use xlink:href="#ygc93_0" transform="matrix(-0.75 0 0 -0.75 173.46966991411009 -215)" style="pointer-events: none;"/></g><g><path fill="none" stroke="rgb(51,102,153)" d="M 240,-215 L 260,-215 L 260,-305 L 275.25,-305" stroke-opacity="1" stroke-width="1" stroke-linecap="butt" stroke-linejoin="miter" stroke-miterlimit="10"/><use xlink:href="#ygc93_0" transform="matrix(-0.75 0 0 -0.75 278.4696699141101 -305)" style="pointer-events: none;"/></g><g><path fill="none" stroke="rgb(51,102,153)" d="M 345,-305 L 380.25,-305" stroke-opacity="1" stroke-width="1" stroke-linecap="butt" stroke-linejoin="miter" stroke-miterlimit="10"/><use xlink:href="#ygc93_0" transform="matrix(-0.75 0 0 -0.75 383.4696699141101 -305)" style="pointer-events: none;"/></g><g><path fill="none" stroke="rgb(51,102,153)" d="M 450,-305 L 470,-305 L 470,-215 L 485.25,-215" stroke-opacity="1" stroke-width="1" stroke-linecap="butt" stroke-linejoin="miter" stroke-miterlimit="10"/><use xlink:href="#ygc93_0" transform="matrix(-0.75 0 0 -0.75 488.4696699141101 -215)" style="pointer-events: none;"/></g><g><path fill="none" stroke="rgb(51,102,153)" d="M 555,-215 L 575,-215 L 575,-125 L 590.25,-125" stroke-opacity="1" stroke-width="1" stroke-linecap="butt" stroke-linejoin="miter" stroke-miterlimit="10"/><use xlink:href="#ygc93_0" transform="matrix(-0.75 0 0 -0.75 593.4696699141101 -125)" style="pointer-events: none;"/></g><g><path fill="none" stroke="rgb(51,102,153)" d="M 660,-125 L 680,-125 L 680,-35 L 695.25,-35" stroke-opacity="1" stroke-width="1" stroke-linecap="butt" stroke-linejoin="miter" stroke-miterlimit="10"/><use xlink:href="#ygc93_0" transform="matrix(-0.75 0 0 -0.75 698.4696699141101 -35)" style="pointer-events: none;"/></g><g><path fill="none" stroke="rgb(51,102,153)" d="M 791,-35 L 826.25,-35" stroke-opacity="1" stroke-width="1" stroke-linecap="butt" stroke-linejoin="miter" stroke-miterlimit="10"/><use xlink:href="#ygc93_0" transform="matrix(-0.75 0 0 -0.75 829.4696699141101 -35)" style="pointer-events: none;"/></g><g><path fill="none" stroke="rgb(51,102,153)" d="M 896,-35 L 916,-35 L 916,-125 L 931.25,-125" stroke-opacity="1" stroke-width="1" stroke-linecap="butt" stroke-linejoin="miter" stroke-miterlimit="10"/><use xlink:href="#ygc93_0" transform="matrix(-0.75 0 0 -0.75 934.4696699141101 -125)" style="pointer-events: none;"/></g><g><path fill="none" stroke="rgb(51,102,153)" d="M 1001,-125 L 1021,-125 L 1021,-215 L 1036.25,-215" stroke-opacity="1" stroke-width="1" stroke-linecap="butt" stroke-linejoin="miter" stroke-miterlimit="10"/><use xlink:href="#ygc93_0" transform="matrix(-0.75 0 0 -0.75 1039.46966991411 -215)" style="pointer-events: none;"/></g><g><path fill="none" stroke="rgb(51,102,153)" d="M 1106,-215 L 1126,-215 L 1126,-305 L 1141.25,-305" stroke-opacity="1" stroke-width="1" stroke-linecap="butt" stroke-linejoin="miter" stroke-miterlimit="10"/><use xlink:href="#ygc93_0" transform="matrix(-0.75 0 0 -0.75 1144.46966991411 -305)" style="pointer-events: none;"/></g><g><path fill="none" stroke="rgb(51,102,153)" d="M 1211,-305 L 1246.25,-305" stroke-opacity="1" stroke-width="1" stroke-linecap="butt" stroke-linejoin="miter" stroke-miterlimit="10"/><use xlink:href="#ygc93_0" transform="matrix(-0.75 0 0 -0.75 1249.46966991411 -305)" style="pointer-events: none;"/></g><g transform="translate(0 -320)"><path d="M 15,30 C 6.717,30 0,23.283 0,15 C 0,6.717 6.717,0 15,0 C 23.283,0 30,6.717 30,15 C 30,23.283 23.283,30 15,30 Z" stroke="rgb(0,128,0)" stroke-opacity="1" stroke-width="1" stroke-linecap="butt" stroke-linejoin="miter" stroke-miterlimit="10" fill="rgb(250,250,250)" fill-opacity="1" transform="translate(0 0)"/></g><g transform="translate(70 -330)"><rect x="0" y="0" width="65" height="50" rx="6" ry="6" stroke="rgb(0,0,139)" stroke-opacity="1" stroke-width="1" stroke-linecap="butt" stroke-linejoin="miter" stroke-miterlimit="10" fill="rgb(250,250,250)" fill-opacity="1"/></g><g transform="translate(70 -330)"><text font-family="'Arial'" font-size="12px" font-style="normal" font-weight="normal" text-decoration="none" text-anchor="middle" fill="rgb(0,0,0)" fill-opacity="1" transform="translate(32.5 18.234375)"><tspan dy="0.9166666666666666em" x="0">Render</tspan></text></g><g transform="translate(175 -240)"><rect x="0" y="0" width="65" height="50" rx="6" ry="6" stroke="rgb(0,0,139)" stroke-opacity="1" stroke-width="1" stroke-linecap="butt" stroke-linejoin="miter" stroke-miterlimit="10" fill="rgb(250,250,250)" fill-opacity="1"/></g><g transform="translate(175 -240)"><text font-family="'Arial'" font-size="12px" font-style="normal" font-weight="normal" text-decoration="none" text-anchor="middle" fill="rgb(0,0,0)" fill-opacity="1" transform="translate(32.5 9.234375)"><tspan dy="0.9166666666666666em" x="0">Create</tspan><tspan dy="1.5em" x="0">Page</tspan></text></g><g transform="translate(280 -330)"><rect x="0" y="0" width="65" height="50" rx="6" ry="6" stroke="rgb(0,0,139)" stroke-opacity="1" stroke-width="1" stroke-linecap="butt" stroke-linejoin="miter" stroke-miterlimit="10" fill="rgb(250,250,250)" fill-opacity="1"/></g><g transform="translate(280 -330)"><text font-family="'Arial'" font-size="12px" font-style="normal" font-weight="normal" text-decoration="none" text-anchor="middle" fill="rgb(0,0,0)" fill-opacity="1" transform="translate(32.5 9.234375)"><tspan dy="0.9166666666666666em" x="0">Character</tspan><tspan dy="1.5em" x="0">Page</tspan></text></g><g transform="translate(385 -330)"><rect x="0" y="0" width="65" height="50" rx="6" ry="6" stroke="rgb(0,0,139)" stroke-opacity="1" stroke-width="1" stroke-linecap="butt" stroke-linejoin="miter" stroke-miterlimit="10" fill="rgb(250,250,250)" fill-opacity="1"/></g><g transform="translate(385 -330)"><text font-family="'Arial'" font-size="12px" font-style="normal" font-weight="normal" text-decoration="none" text-anchor="middle" fill="rgb(0,0,0)" fill-opacity="1" transform="translate(32.5 9.234375)"><tspan dy="0.9166666666666666em" x="0">Execute</tspan><tspan dy="1.5em" x="0">Javascript</tspan></text></g><g transform="translate(490 -240)"><rect x="0" y="0" width="65" height="50" rx="6" ry="6" stroke="rgb(0,0,139)" stroke-opacity="1" stroke-width="1" stroke-linecap="butt" stroke-linejoin="miter" stroke-miterlimit="10" fill="rgb(250,250,250)" fill-opacity="1"/></g><g transform="translate(490 -240)"><text font-family="'Arial'" font-size="12px" font-style="normal" font-weight="normal" text-decoration="none" text-anchor="middle" fill="rgb(0,0,0)" fill-opacity="1" transform="translate(32.5 9.234375)"><tspan dy="0.9166666666666666em" x="0">Character.</tspan><tspan dy="1.5em" x="0">php</tspan></text></g><g transform="translate(595 -150)"><rect x="0" y="0" width="65" height="50" rx="6" ry="6" stroke="rgb(0,0,139)" stroke-opacity="1" stroke-width="1" stroke-linecap="butt" stroke-linejoin="miter" stroke-miterlimit="10" fill="rgb(250,250,250)" fill-opacity="1"/></g><g transform="translate(595 -150)"><text font-family="'Arial'" font-size="12px" font-style="normal" font-weight="normal" text-decoration="none" text-anchor="middle" fill="rgb(0,0,0)" fill-opacity="1" transform="translate(32.5 18.234375)"><tspan dy="0.9166666666666666em" x="0">Code.gs</tspan></text></g><g transform="translate(700 -60)"><rect x="0" y="0" width="91" height="50" rx="6" ry="6" stroke="rgb(0,0,139)" stroke-opacity="1" stroke-width="1" stroke-linecap="butt" stroke-linejoin="miter" stroke-miterlimit="10" fill="rgb(250,250,250)" fill-opacity="1"/></g><g transform="translate(700 -60)"><text font-family="'Arial'" font-size="12px" font-style="normal" font-weight="normal" text-decoration="none" text-anchor="middle" fill="rgb(0,0,0)" fill-opacity="1" transform="translate(45.5 9.234375)"><tspan dy="0.9166666666666666em" x="0">Query</tspan><tspan dy="1.5em" x="0">spreadsheet</tspan></text></g><g transform="translate(831 -60)"><rect x="0" y="0" width="65" height="50" rx="6" ry="6" stroke="rgb(0,0,139)" stroke-opacity="1" stroke-width="1" stroke-linecap="butt" stroke-linejoin="miter" stroke-miterlimit="10" fill="rgb(250,250,250)" fill-opacity="1"/></g><g transform="translate(831 -60)"><text font-family="'Arial'" font-size="12px" font-style="normal" font-weight="normal" text-decoration="none" text-anchor="middle" fill="rgb(0,0,0)" fill-opacity="1" transform="translate(32.5 18.234375)"><tspan dy="0.9166666666666666em" x="0">Return row</tspan></text></g><g transform="translate(936 -150)"><rect x="0" y="0" width="65" height="50" rx="6" ry="6" stroke="rgb(0,0,139)" stroke-opacity="1" stroke-width="1" stroke-linecap="butt" stroke-linejoin="miter" stroke-miterlimit="10" fill="rgb(250,250,250)" fill-opacity="1"/></g><g transform="translate(936 -150)"><text font-family="'Arial'" font-size="12px" font-style="normal" font-weight="normal" text-decoration="none" text-anchor="middle" fill="rgb(0,0,0)" fill-opacity="1" transform="translate(32.5 9.234375)"><tspan dy="0.9166666666666666em" x="0">Return</tspan><tspan dy="1.5em" x="0">JSON</tspan></text></g><g transform="translate(1041 -240)"><rect x="0" y="0" width="65" height="50" rx="6" ry="6" stroke="rgb(0,0,139)" stroke-opacity="1" stroke-width="1" stroke-linecap="butt" stroke-linejoin="miter" stroke-miterlimit="10" fill="rgb(250,250,250)" fill-opacity="1"/></g><g transform="translate(1041 -240)"><text font-family="'Arial'" font-size="12px" font-style="normal" font-weight="normal" text-decoration="none" text-anchor="middle" fill="rgb(0,0,0)" fill-opacity="1" transform="translate(32.5 0.234375)"><tspan dy="0.9166666666666666em" x="0">Render</tspan><tspan dy="1.5em" x="0">character</tspan><tspan dy="1.5em" x="0">table</tspan></text></g><g transform="translate(1146 -330)"><rect x="0" y="0" width="65" height="50" rx="6" ry="6" stroke="rgb(0,0,139)" stroke-opacity="1" stroke-width="1" stroke-linecap="butt" stroke-linejoin="miter" stroke-miterlimit="10" fill="rgb(250,250,250)" fill-opacity="1"/></g><g transform="translate(1146 -330)"><text font-family="'Arial'" font-size="12px" font-style="normal" font-weight="normal" text-decoration="none" text-anchor="middle" fill="rgb(0,0,0)" fill-opacity="1" transform="translate(32.5 9.234375)"><tspan dy="0.9166666666666666em" x="0">Insert</tspan><tspan dy="1.5em" x="0">HTML</tspan></text></g><g transform="translate(1251 -320)"><g transform="translate(0 0)"><path d="M 15,30 C 6.717,30 0,23.283 0,15 C 0,6.717 6.717,0 15,0 C 23.283,0 30,6.717 30,15 C 30,23.283 23.283,30 15,30 Z" stroke="rgb(255,0,0)" stroke-opacity="1" stroke-width="3" stroke-linecap="butt" stroke-linejoin="miter" stroke-miterlimit="10" fill="rgb(250,250,250)" fill-opacity="1" transform="translate(0 0)"/><path d="M 10.799999999999999,21.599999999999998 C 4.836239999999999,21.599999999999998 0,16.763759999999998 0,10.799999999999999 C 0,4.836239999999999 4.836239999999999,0 10.799999999999999,0 C 16.763759999999998,0 21.599999999999998,4.836239999999999 21.599999999999998,10.799999999999999 C 21.599999999999998,16.763759999999998 16.763759999999998,21.599999999999998 10.799999999999999,21.599999999999998 Z" stroke="rgb(0,0,0)" stroke-opacity="1" stroke-width="1" stroke-linecap="butt" stroke-linejoin="miter" stroke-miterlimit="10" fill="rgb(0,0,0)" fill-opacity="1" transform="translate(4.199999999999999 4.199999999999999)"/></g></g></g></svg>